HIERARCHY
ROOT Hips
{
	OFFSET -3.958830 18.904000 13.208200
	CHANNELS 6 Xposition Yposition Zposition Zrotation Yrotation Xrotation 
	JOINT LHipJoint
	{
		OFFSET 0.000000 0.000000 0.000000
		CHANNELS 3 Zrotation Yrotation Xrotation
		JOINT LeftUpLeg
		{
			OFFSET 1.800000 -1.400000 0.085000
			CHANNELS 3 Zrotation Yrotation Xrotation
			JOINT LeftLeg
			{
				OFFSET 2.215000 -6.000000 0.000000
				CHANNELS 3 Zrotation Yrotation Xrotation
				JOINT LeftFoot
				{
					OFFSET 2.500000 -6.900000 0.000000
					CHANNELS 3 Zrotation Yrotation Xrotation
					JOINT LeftToeBase
					{
						OFFSET 0.200000 -0.500000 1.950000
						CHANNELS 3 Zrotation Yrotation Xrotation
						End Site
						{
							OFFSET 0.000000 0.000000 0.000000
						}
					}
				}
			}
		}
	}
	JOINT RHipJoint
	{
		OFFSET 0.000000 0.000000 0.000000
		CHANNELS 3 Zrotation Yrotation Xrotation
		JOINT RightUpLeg
		{
			OFFSET -1.800000 -1.400000 0.085000
			CHANNELS 3 Zrotation Yrotation Xrotation
			JOINT RightLeg
			{
				OFFSET -2.215000 -6.000000 0.000000
				CHANNELS 3 Zrotation Yrotation Xrotation
				JOINT RightFoot
				{
					OFFSET -2.500000 -6.900000 0.000000
					CHANNELS 3 Zrotation Yrotation Xrotation
					JOINT RightToeBase
					{
						OFFSET -0.200000 -0.500000 1.950000
						CHANNELS 3 Zrotation Yrotation Xrotation
						End Site
						{
							OFFSET 0.000000 0.000000 0.000000
						}
					}
				}
			}
		}
	}
	JOINT LowerBack
	{
		OFFSET 0.000000 0.000000 0.000000
		CHANNELS 3 Zrotation Yrotation Xrotation
		JOINT Spine
		{
			OFFSET -0.087000 1.940000 -0.288900
			CHANNELS 3 Zrotation Yrotation Xrotation
			JOINT Spine1
			{
				OFFSET 0.000000 1.950000 0.060000
				CHANNELS 3 Zrotation Yrotation Xrotation
				JOINT Neck
				{
					OFFSET 0.000000 0.000000 0.000000
					CHANNELS 3 Zrotation Yrotation Xrotation
					JOINT Neck1
					{
						OFFSET 0.000000 1.600000 0.340000
						CHANNELS 3 Zrotation Yrotation Xrotation
						JOINT Head
						{
							OFFSET 0.000000 1.667000 -0.240000
							CHANNELS 3 Zrotation Yrotation Xrotation
							End Site
							{
								OFFSET 0.000000 0.000000 0.000000
							}
						}
					}
				}
				JOINT LeftShoulder
				{
					OFFSET 0.000000 0.000000 0.000000
					CHANNELS 3 Zrotation Yrotation Xrotation
					JOINT LeftArm
					{
						OFFSET 2.700000 1.550000 -0.730000
						CHANNELS 3 Zrotation Yrotation Xrotation
						JOINT LeftForeArm
						{
							OFFSET 5.450000 0.000000 0.000000
							CHANNELS 3 Zrotation Yrotation Xrotation
							JOINT LeftHand
							{
								OFFSET 3.450000 0.000000 0.000000
								CHANNELS 3 Zrotation Yrotation Xrotation
								JOINT LeftHandIndex1
								{
									OFFSET 0.750000 0.000000 0.000000
									CHANNELS 3 Zrotation Yrotation Xrotation
									End Site
									{
										OFFSET 0.000000 0.000000 0.000000
									}
								}
							}
						}
					}
				}
				JOINT RightShoulder
				{
					OFFSET 0.000000 0.000000 0.000000
					CHANNELS 3 Zrotation Yrotation Xrotation
					JOINT RightArm
					{
						OFFSET -2.700000 1.550000 -0.730000
						CHANNELS 3 Zrotation Yrotation Xrotation
						JOINT RightForeArm
						{
							OFFSET -5.450000 0.000000 0.000000
							CHANNELS 3 Zrotation Yrotation Xrotation
							JOINT RightHand
							{
								OFFSET -3.450000 0.000000 0.000000
								CHANNELS 3 Zrotation Yrotation Xrotation
								JOINT RightHandIndex1
								{
									OFFSET -0.750000 0.000000 0.000000
									CHANNELS 3 Zrotation Yrotation Xrotation
									End Site
									{
										OFFSET 0.000000 0.000000 0.000000
									}
								}
							}
						}
					}
				}
			}
		}
	}
}
MOTION
Frames: 6
Frame Time: 0.016667
-2.165400 17.528720 1.736340 -5.825619 -1.913490 -7.221354 -14.916845 11.123446 4.994028 28.775002 0.579272 -30.294927 -20.685230 20.279478 37.885730 0.085760 11.220867 0.455086 -0.365760 -0.572810 -0.524220 18.861358 -10.112851 2.351573 -6.396205 7.144109 -16.195398 9.055142 -13.068289 48.142610 -0.930215 -8.112172 1.454805 -0.123270 0.913290 0.123330 -4.872568 -0.129979 -8.597149 16.626852 -4.459240 26.421292 -15.999985 0.924334 -0.226517 -0.518249 -11.781176 -11.316008 -30.307868 16.576436 35.727014 8.065860 -2.133220 -10.484110 -13.394203 -5.037061 2.308037 -36.473491 -10.044352 0.255145 5.786395 -14.869607 -2.070797 -4.116244 2.305202 0.744000 0.180370 -0.204060 0.032610 13.701399 12.220741 6.877923 41.259125 2.002761 -19.670044 -45.083651 75.554381 -32.530394 1.314714 0.073845 -0.671520 0.750750 0.732770 0.082160 
-2.155620 17.542190 1.753310 -5.819445 -2.225875 -7.311756 -14.920310 11.209851 4.955455 28.689775 0.695426 -29.679450 -20.739566 20.133360 37.354735 0.102598 11.108754 0.497957 -0.350940 -0.547720 -0.504810 18.838950 -10.148370 2.347894 -6.381196 7.062860 -15.800146 8.898407 -12.855369 47.814115 -0.930779 -8.023308 1.488167 -0.125530 0.890370 0.119020 -4.830991 -0.187667 -8.584106 16.330717 -4.223820 26.305544 -15.874955 1.091285 -0.289907 -0.276596 -11.705537 -11.462875 -30.087850 16.501380 36.092053 7.885850 -1.883480 -10.747250 -13.647949 -5.090905 2.322989 -36.715320 -9.666798 0.046096 5.784735 -15.027410 -2.056970 -4.089969 2.306812 0.743860 0.164100 -0.181560 0.038980 13.515762 12.443391 7.095368 41.789681 1.883859 -19.800114 -44.017531 75.345514 -31.862049 1.346214 0.029355 -0.653720 0.746170 0.707870 0.085210 
-2.140430 17.565990 1.780410 -5.905536 -2.476858 -7.060104 -14.930520 11.308510 4.925658 28.533605 0.803793 -29.257827 -20.735355 19.890163 36.637812 0.121165 10.947044 0.567270 -0.341300 -0.520670 -0.493360 18.810531 -10.173043 2.342792 -6.224695 6.916347 -15.520201 8.676496 -12.525150 47.178644 -0.915497 -7.865694 1.554315 -0.130140 0.874430 0.106480 -4.771024 -0.288440 -8.570296 15.996129 -3.865501 25.675247 -15.749922 1.282625 -0.524892 0.058999 -11.626805 -11.581624 -29.611206 16.190522 36.136945 7.622470 -1.619750 -10.933060 -14.090542 -4.993078 2.223793 -37.089753 -9.264022 -0.146004 5.679728 -14.980975 -1.999491 -4.064835 2.302681 0.734910 0.151430 -0.162180 0.053970 13.333648 12.575898 7.402808 42.868375 1.584984 -19.986806 -43.146256 75.386790 -31.507821 1.374102 -0.000809 -0.636870 0.748900 0.676790 0.094600 
-2.117920 17.595780 1.821400 -6.050639 -2.729103 -6.361942 -14.946400 11.403934 4.914334 28.313165 0.916853 -29.113372 -20.782889 19.574896 35.656835 0.120902 10.771254 0.636748 -0.352890 -0.526650 -0.512230 18.780161 -10.184465 2.329471 -6.021216 6.711142 -15.415576 8.396997 -12.094892 46.150651 -0.865712 -7.652758 1.644360 -0.149330 0.882970 0.113250 -4.701295 -0.419102 -8.550122 15.764865 -3.323943 24.406166 -15.639240 1.503100 -1.052711 0.398789 -11.574333 -11.618717 -28.968613 15.743304 35.716066 7.412680 -1.500860 -10.637820 -14.299191 -4.390473 1.946785 -38.142061 -8.973746 -0.214081 5.377891 -14.779921 -1.935496 -4.071667 2.310243 0.720160 0.162150 -0.163050 0.066950 12.895718 12.254899 7.725683 44.631380 1.136191 -20.041663 -41.549494 75.779027 -30.812046 1.392552 -0.061122 -0.622670 0.737000 0.669680 0.106390 
-2.096240 17.634110 1.871150 -6.212655 -3.169605 -5.341196 -14.962518 11.486261 4.915628 28.122773 1.095488 -29.066128 -20.901706 19.296933 34.542883 0.121987 10.588247 0.704956 -0.372670 -0.542210 -0.538860 18.752012 -10.200025 2.316344 -5.642132 6.511694 -15.486590 7.863317 -11.436075 44.844896 -0.787701 -7.359365 1.756807 -0.171650 0.887780 0.117700 -4.633930 -0.513250 -8.527077 15.496853 -2.658327 22.874448 -15.589768 1.721819 -2.087475 0.690492 -11.606011 -11.501527 -28.170616 15.131306 34.688663 7.056350 -1.358870 -10.210810 -14.284906 -3.094738 1.470255 -39.425213 -8.473520 -0.282411 4.409426 -14.767553 -1.777912 -4.080400 2.332740 0.696810 0.173500 -0.173660 0.074780 12.310571 11.382498 7.970349 46.891436 0.686178 -19.716589 -37.866993 76.082121 -28.568445 1.441363 -0.211762 -0.609010 0.711630 0.666500 0.116590 
-2.074140 17.674930 1.923820 -6.438871 -3.336051 -4.000064 -14.984020 11.558116 4.922018 27.828178 1.161750 -29.414669 -20.780528 18.896007 33.444547 0.105512 10.395207 0.802686 -0.425500 -0.601630 -0.585650 18.723326 -10.196631 2.308285 -5.228334 6.271601 -15.818624 7.475662 -10.837680 43.322421 -0.683989 -7.044932 1.889333 -0.203450 0.934610 0.099070 -4.558911 -0.630576 -8.499715 15.137169 -2.029474 21.016975 -15.406232 1.828522 -3.327863 0.889219 -11.649053 -11.331738 -27.159297 14.434680 33.009433 6.909930 -1.336750 -8.965210 -14.299821 -1.629289 1.024307 -40.768567 -7.508822 -0.518811 3.240746 -15.347891 -1.610097 -4.099886 2.331168 0.666350 0.203170 -0.217230 0.088030 11.976155 10.307830 8.200354 48.993364 -0.236219 -19.337494 -33.537843 76.751844 -26.015720 1.491072 -0.363002 -0.632490 0.717960 0.675750 0.127400 
